<!-- Activity and Professional SVG Icons for Sickle Cell Support Website -->
<svg xmlns="http://www.w3.org/2000/svg" style="display: none;">
  
  <!-- Handshake Icon -->
  <symbol id="icon-handshake" viewBox="0 0 24 24">
    <path d="M18 4l-4 4h3v2l-5-5-1.5 1.5 5 5H17v2l-6-6-1.5 1.5 6 6h1.5v2h2V4h-1z"/>
    <path d="M9.5 14.5l5-5L13 8l-5 5 1.5 1.5z"/>
    <path d="M6.5 11.5l3-3L8 7l-3 3 1.5 1.5z"/>
    <path d="M6 17l1.5-1.5-1.5-1.5L4.5 15.5 6 17z"/>
    <path d="M4 4v2h2l2 2-2 2v2l4-4L8 6l2-2H4z"/>
    <path d="M20 4v2h-2l-2 2 2 2v2l-4-4 2-2-2-2h6z"/>
  </symbol>
  
  <!-- Books/Education Icon -->
  <symbol id="icon-books" viewBox="0 0 24 24">
    <path d="M19 3H5c-1.1 0-2 .9-2 2v14c0 1.1.9 2 2 2h14c1.1 0 2-.9 2-2V5c0-1.1-.9-2-2-2zm0 16H5V5h14v14z"/>
    <path d="M7 15h10v2H7z"/>
    <path d="M7 11h10v2H7z"/>
    <path d="M7 7h7v2H7z"/>
    <path d="M16 7h1v2h-1z"/>
  </symbol>
  
  <!-- Celebration/Party Icon -->
  <symbol id="icon-celebration" viewBox="0 0 24 24">
    <path d="M2 20l3-3 3 3-3 3-3-3z"/>
    <path d="M12 8L8 4l1.5-1.5L12 5l2.5-2.5L16 4l-4 4z"/>
    <circle cx="12" cy="12" r="3"/>
    <path d="M19 3l2 2-2 2-2-2 2-2z"/>
    <path d="M3 19l2 2-2 2-2-2 2-2z"/>
    <path d="M12 2l1 3-1 3-1-3 1-3z"/>
    <path d="M12 16l1 3-1 3-1-3 1-3z"/>
    <path d="M2 12l3-1 3 1-3 1-3-1z"/>
    <path d="M16 12l3-1 3 1-3 1-3-1z"/>
    <path d="M6 6l2 2-2 2-2-2 2-2z"/>
    <path d="M16 16l2 2-2 2-2-2 2-2z"/>
  </symbol>
  
  <!-- Computer/Digital Icon -->
  <symbol id="icon-computer" viewBox="0 0 24 24">
    <path d="M4 6h16c1.1 0 2 .9 2 2v8c0 1.1-.9 2-2 2h-7l1 2v1H10v-1l1-2H4c-1.1 0-2-.9-2-2V8c0-1.1.9-2 2-2zm16 10V8H4v8h16z"/>
    <circle cx="12" cy="12" r="1"/>
    <path d="M8 10h8v4H8z" fill="none" stroke="currentColor"/>
  </symbol>
  
  <!-- Art/Creative Icon -->
  <symbol id="icon-art" viewBox="0 0 24 24">
    <path d="M12 2C8.69 2 6 4.69 6 8c0 2.5 1.5 4.67 3.64 5.64L7 22h10l-2.64-8.36C16.5 12.67 18 10.5 18 8c0-3.31-2.69-6-6-6zm0 2c2.21 0 4 1.79 4 4s-1.79 4-4 4-4-1.79-4-4 1.79-4 4-4z"/>
    <circle cx="12" cy="8" r="2"/>
    <path d="M9.5 20h5l-1-3h-3l-1 3z"/>
  </symbol>
  
  <!-- Graduation Cap Icon -->
  <symbol id="icon-graduation" viewBox="0 0 24 24">
    <path d="M12 3L1 9l4 2.18v6L12 21l7-3.82v-6L23 9l-11-6zm6.82 6L12 12.72 5.18 9 12 5.28 18.82 9zM17 15.99l-5 2.73-5-2.73v-3.72L12 15l5-2.73v3.72z"/>
  </symbol>
  
  <!-- Scales/Balance Icon -->
  <symbol id="icon-scales" viewBox="0 0 24 24">
    <path d="M11 2h2v8h-2V2z"/>
    <path d="M7 8c-2.76 0-5 2.24-5 5s2.24 5 5 5 5-2.24 5-5-2.24-5-5-5zm0 8c-1.65 0-3-1.35-3-3s1.35-3 3-3 3 1.35 3 3-1.35 3-3 3z"/>
    <path d="M17 8c-2.76 0-5 2.24-5 5s2.24 5 5 5 5-2.24 5-5-2.24-5-5-5zm0 8c-1.65 0-3-1.35-3-3s1.35-3 3-3 3 1.35 3 3-1.35 3-3 3z"/>
    <path d="M12 10h8"/>
    <path d="M4 10h8"/>
    <path d="M11 18h2v4h-2z"/>
    <path d="M7 22h10v2H7z"/>
  </symbol>
  
  <!-- Trophy/Achievement Icon -->
  <symbol id="icon-trophy" viewBox="0 0 24 24">
    <path d="M7 4V2c0-1.1.9-2 2-2h6c1.1 0 2 .9 2 2v2h1c1.1 0 2 .9 2 2v4c0 2.21-1.79 4-4 4h-1.17C14.42 15.28 13.28 16 12 16s-2.42-.72-2.83-1.72H8c-2.21 0-4-1.79-4-4V6c0-1.1.9-2 2-2h1zm8 0H9v8h6V4zm2 2v4h1c1.1 0 2-.9 2-2s-.9-2-2-2h-1zM6 6H5c-1.1 0-2 .9-2 2s.9 2 2 2h1V6z"/>
    <path d="M10 20h4v2h-4z"/>
    <path d="M8 18h8v2H8z"/>
  </symbol>
  
  <!-- Target/Goals Icon -->
  <symbol id="icon-target" viewBox="0 0 24 24">
    <circle cx="12" cy="12" r="10" fill="none" stroke="currentColor" stroke-width="2"/>
    <circle cx="12" cy="12" r="6" fill="none" stroke="currentColor" stroke-width="2"/>
    <circle cx="12" cy="12" r="2"/>
    <path d="M12 2v4"/>
    <path d="M12 18v4"/>
    <path d="M2 12h4"/>
    <path d="M18 12h4"/>
  </symbol>

</svg>