<!-- Emotional and Support SVG Icons for Sickle Cell Support Website -->
<svg xmlns="http://www.w3.org/2000/svg" style="display: none;">
  
  <!-- Heart Icon -->
  <symbol id="icon-heart" viewBox="0 0 24 24">
    <path d="M12 21.35l-1.45-1.32C5.4 15.36 2 12.28 2 8.5 2 5.42 4.42 3 7.5 3c1.74 0 3.41.81 4.5 2.09C13.09 3.81 14.76 3 16.5 3 19.58 3 22 5.42 22 8.5c0 3.78-3.4 6.86-8.55 11.54L12 21.35z"/>
  </symbol>
  
  <!-- Star Icon -->
  <symbol id="icon-star" viewBox="0 0 24 24">
    <path d="M12 2l3.09 6.26L22 9.27l-5 4.87 1.18 6.88L12 17.77l-6.18 3.25L7 14.14 2 9.27l6.91-1.01L12 2z"/>
  </symbol>
  
  <!-- Lightbulb/Ideas Icon -->
  <symbol id="icon-lightbulb" viewBox="0 0 24 24">
    <path d="M12 2C8.13 2 5 5.13 5 9c0 2.38 1.19 4.47 3 5.74V17c0 .55.45 1 1 1h6c.55 0 1-.45 1-1v-2.26c1.81-1.27 3-3.36 3-5.74 0-3.87-3.13-7-7-7zm2.85 11.1l-.85.6V16H10v-2.3l-.85-.6C7.8 12.16 7 10.63 7 9c0-2.76 2.24-5 5-5s5 2.24 5 5c0 1.63-.8 3.16-2.15 4.1z"/>
    <path d="M9 21h6v2H9z"/>
    <path d="M10 19h4v1h-4z"/>
  </symbol>
  
  <!-- People/Community Icon -->
  <symbol id="icon-people" viewBox="0 0 24 24">
    <path d="M16 4c0-1.11.89-2 2-2s2 .89 2 2-.89 2-2 2-2-.89-2-2z"/>
    <path d="M20 22v-6c0-1.11-.89-2-2-2h-4c-1.11 0-2 .89-2 2v6h2v-6h4v6h2z"/>
    <path d="M12.5 11.5c.83 0 1.5-.67 1.5-1.5s-.67-1.5-1.5-1.5S11 9.17 11 10s.67 1.5 1.5 1.5z"/>
    <path d="M17 22v-4c0-.55-.45-1-1-1h-2c-.55 0-1 .45-1 1v4h1v-4h2v4h1z"/>
    <path d="M8 4c0-1.11-.89-2-2-2S4 2.89 4 4s.89 2 2 2 2-.89 2-2z"/>
    <path d="M10 22v-6c0-1.11-.89-2-2-2H4c-1.11 0-2 .89-2 2v6h2v-6h4v6h2z"/>
    <path d="M12 7c-.55 0-1 .45-1 1s.45 1 1 1 1-.45 1-1-.45-1-1-1z"/>
  </symbol>
  
  <!-- Strength/Muscle Icon -->
  <symbol id="icon-strength" viewBox="0 0 24 24">
    <path d="M20.57 14.86L22 13.43 20.57 12 17 15.57 8.43 7 12 3.43 10.57 2 9.14 3.43 7.71 2 5.57 4.14 4.14 2.71 2.71 4.14l1.43 1.43L2 7.71l1.43 1.43L2 10.57 3.43 12 7 8.43 15.57 17 12 20.57 13.43 22l1.43-1.43L16.29 22l2.14-2.14 1.43 1.43 1.43-1.43-1.43-1.43L22 16.29l-1.43-1.43z"/>
    <path d="M8.83 12.83l1.41 1.41L12 12.48l1.76 1.76 1.41-1.41L12 9.66l-3.17 3.17z"/>
  </symbol>
  
  <!-- Brain/Mental Health Icon -->
  <symbol id="icon-brain" viewBox="0 0 24 24">
    <path d="M13 3c-4.97 0-9 4.03-9 9 0 .83.13 1.65.36 2.42C3.59 15.24 3 16.57 3 18c0 1.65 1.35 3 3 3h.36C7.13 21.35 7.97 21.24 9 21.24c4.97 0 9-4.03 9-9S17.97 3 13 3zm-2 16c-.55 0-1-.45-1-1s.45-1 1-1 1 .45 1 1-.45 1-1 1zm3-4c-.55 0-1-.45-1-1s.45-1 1-1 1 .45 1 1-.45 1-1 1zm2-4c-.55 0-1-.45-1-1s.45-1 1-1 1 .45 1 1-.45 1-1 1zm-1-4c-.55 0-1-.45-1-1s.45-1 1-1 1 .45 1 1-.45 1-1 1z"/>
  </symbol>
  
  <!-- Support/Helping Hands Icon -->
  <symbol id="icon-support" viewBox="0 0 24 24">
    <path d="M13 1.07V9h7c0-4.08-3.05-7.44-7-7.93z"/>
    <path d="M4 15c0 4.42 3.58 8 8 8s8-3.58 8-8v-4H4v4zm8 6c-3.31 0-6-2.69-6-6v-2h12v2c0 3.31-2.69 6-6 6z"/>
    <path d="M11 1.07C7.05 1.56 4 4.92 4 9h7V1.07z"/>
    <circle cx="12" cy="17" r="2"/>
    <path d="M9 15h6v1H9z"/>
  </symbol>
  
  <!-- Unity/Connection Icon -->
  <symbol id="icon-unity" viewBox="0 0 24 24">
    <circle cx="9" cy="12" r="2"/>
    <circle cx="15" cy="12" r="2"/>
    <path d="M12 2C6.48 2 2 6.48 2 12s4.48 10 10 10 10-4.48 10-10S17.52 2 12 2zm0 18c-4.41 0-8-3.59-8-8s3.59-8 8-8 8 3.59 8 8-3.59 8-8 8z"/>
    <path d="M12 6v12"/>
    <path d="M6 12h12"/>
  </symbol>
  
  <!-- Wellness/Balance Icon -->
  <symbol id="icon-wellness" viewBox="0 0 24 24">
    <path d="M12 2l3.09 6.26L22 9.27l-5 4.87 1.18 6.88L12 17.77l-6.18 3.25L7 14.14 2 9.27l6.91-1.01L12 2z" opacity="0.3"/>
    <circle cx="12" cy="12" r="8" fill="none" stroke="currentColor" stroke-width="2"/>
    <path d="M12 4v16"/>
    <path d="M4 12h16"/>
    <circle cx="12" cy="12" r="2"/>
  </symbol>
  
  <!-- Hope/Rising Sun Icon -->
  <symbol id="icon-hope" viewBox="0 0 24 24">
    <circle cx="12" cy="12" r="4"/>
    <path d="M12 2v2"/>
    <path d="M12 20v2"/>
    <path d="M4.22 4.22l1.42 1.42"/>
    <path d="M18.36 18.36l1.42 1.42"/>
    <path d="M2 12h2"/>
    <path d="M20 12h2"/>
    <path d="M6.36 17.64l-1.42 1.42"/>
    <path d="M19.78 4.22l-1.42 1.42"/>
  </symbol>
  
  <!-- Water/Hydration Icon -->
  <symbol id="icon-water" viewBox="0 0 24 24">
    <path d="M12 2l-6.09 7c-2.3 2.6-2.3 6.8 0 9.4C7.45 20.55 9.65 22 12 22s4.55-1.45 6.09-3.6c2.3-2.6 2.3-6.8 0-9.4L12 2z"/>
  </symbol>

</svg>