<!-- Medical SVG Icons for Sickle Cell Support Website -->
<svg xmlns="http://www.w3.org/2000/svg" style="display: none;">
  
  <!-- Hospital Icon -->
  <symbol id="icon-hospital" viewBox="0 0 24 24">
    <path d="M12 3L2 9v12h20V9l-10-6zm8 16H4v-8.5l8-4.8 8 4.8V19z"/>
    <path d="M13 11h-2v2h-2v2h2v2h2v-2h2v-2h-2v-2z"/>
  </symbol>
  
  <!-- Pills/Medication Icon -->
  <symbol id="icon-pills" viewBox="0 0 24 24">
    <ellipse cx="7" cy="17" rx="6" ry="4" fill="currentColor" opacity="0.8"/>
    <ellipse cx="17" cy="7" rx="6" ry="4" fill="currentColor" opacity="0.6"/>
    <path d="M7 13c-3.3 0-6 1.8-6 4s2.7 4 6 4 6-1.8 6-4-2.7-4-6-4z"/>
    <path d="M17 3c-3.3 0-6 1.8-6 4s2.7 4 6 4 6-1.8 6-4-2.7-4-6-4z"/>
  </symbol>
  
  <!-- Stethoscope Icon -->
  <symbol id="icon-stethoscope" viewBox="0 0 24 24">
    <path d="M19.14 7.5c-1.1 0-2 .9-2 2s.9 2 2 2 2-.9 2-2-.9-2-2-2z"/>
    <path d="M20.5 10.5c-.28 0-.5-.22-.5-.5s.22-.5.5-.5.5.22.5.5-.22.5-.5.5z"/>
    <path d="M19.14 12.5c-1.93 0-3.5-1.57-3.5-3.5 0-.58.16-1.12.42-1.6L14 9.5v1c0 3.86-3.14 7-7 7s-7-3.14-7-7v-1l2.06-2.1c.26.48.42 1.02.42 1.6 0 1.93-1.57 3.5-3.5 3.5S2.5 11.43 2.5 9.5s1.57-3.5 3.5-3.5c.58 0 1.12.16 1.6.42L9.5 4h1c3.86 0 7 3.14 7 7v.5l2.06-2.1c.26.48.42 1.02.42 1.6 0 1.93-1.57 3.5-3.5 3.5z"/>
    <circle cx="6" cy="9.5" r="2"/>
    <circle cx="18" cy="9.5" r="2"/>
  </symbol>
  
  <!-- Blood Cells/Sickle Cell Icon -->
  <symbol id="icon-blood-cell" viewBox="0 0 24 24">
    <path d="M12 2C8.69 2 6 4.69 6 8c0 1.89.89 3.57 2.27 4.65-.52.37-1.04.76-1.54 1.18C5.25 12.47 4 10.36 4 8c0-4.42 3.58-8 8-8s8 3.58 8 8c0 2.36-1.25 4.47-3.73 5.83-.5-.42-1.02-.81-1.54-1.18C16.11 11.57 17 9.89 17 8c0-3.31-2.69-6-6-6z"/>
    <path d="M9.5 14.5c-.55 0-1 .45-1 1s.45 1 1 1 1-.45 1-1-.45-1-1-1z"/>
    <path d="M14.5 16.5c-.55 0-1 .45-1 1s.45 1 1 1 1-.45 1-1-.45-1-1-1z"/>
    <path d="M12 12c-2.21 0-4 1.79-4 4s1.79 4 4 4 4-1.79 4-4-1.79-4-4-4zm0 6c-1.1 0-2-.9-2-2s.9-2 2-2 2 .9 2 2-.9 2-2 2z"/>
  </symbol>
  
  <!-- Warning Icon -->
  <symbol id="icon-warning" viewBox="0 0 24 24">
    <path d="M12 2L1 21h22L12 2zm0 3.84L19.13 19H4.87L12 5.84z"/>
    <circle cx="12" cy="16" r="1"/>
    <path d="M11 10h2v4h-2z"/>
  </symbol>
  
  <!-- Emergency/Siren Icon -->
  <symbol id="icon-emergency" viewBox="0 0 24 24">
    <path d="M12 2L4 7v3h2V8.5L12 5l6 3.5V10h2V7l-8-5z"/>
    <path d="M6 12v8h12v-8H6zm10 6H8v-4h8v4z"/>
    <path d="M9 14h6v2H9z"/>
    <circle cx="12" cy="8" r="1"/>
    <path d="M11 4h2v2h-2z" fill="red"/>
    <path d="M13 6h2v2h-2z" fill="red"/>
    <path d="M9 6h2v2H9z" fill="red"/>
  </symbol>
  
  <!-- Microscope Icon -->
  <symbol id="icon-microscope" viewBox="0 0 24 24">
    <path d="M9 2v3.5c0 .28.22.5.5.5h1c.28 0 .5-.22.5-.5V2h2v3.5c0 .28.22.5.5.5h1c.28 0 .5-.22.5-.5V2h2v4.5c0 1.38-1.12 2.5-2.5 2.5h-3C9.12 9 8 7.88 8 6.5V2h1z"/>
    <path d="M6 10h4v2H6z"/>
    <path d="M5 12h6v2H5z"/>
    <path d="M3 20h18v2H3z"/>
    <circle cx="12" cy="16" r="2"/>
    <path d="M10 14h4v1h-4z"/>
  </symbol>
  
  <!-- DNA/Genetics Icon -->
  <symbol id="icon-dna" viewBox="0 0 24 24">
    <path d="M12 3c-1.1 0-2 .9-2 2v1.17C8.42 6.6 7.17 7.85 6.76 9.5H6c-1.1 0-2 .9-2 2s.9 2 2 2h.76c.41 1.65 1.66 2.9 3.24 3.33V18c0 1.1.9 2 2 2s2-.9 2-2v-1.17c1.58-.43 2.83-1.68 3.24-3.33H18c1.1 0 2-.9 2-2s-.9-2-2-2h-.76c-.41-1.65-1.66-2.9-3.24-3.33V5c0-1.1-.9-2-2-2zm0 2v1.26C13.1 6.47 14 7.65 14 9v1h-4V9c0-1.35.9-2.53 2-2.74V5zm2 5v1h-4v-1c0-.55.45-1 1-1h2c.55 0 1 .45 1 1zm-4 3h4v1c0 .55-.45 1-1 1h-2c-.55 0-1-.45-1-1v-1zm2 3.74V19c1.1-.21 2-1.39 2-2.74V15h-4v1.26c0 1.35.9 2.53 2 2.74z"/>
  </symbol>
  
  <!-- Syringe/Injection Icon -->
  <symbol id="icon-syringe" viewBox="0 0 24 24">
    <path d="M19 3l2 2-2.5 2.5L17 6l-2 2 1.5 1.5L15 11l-2-2-8 8c-.39.39-1.02.39-1.41 0L2.17 15.58c-.39-.39-.39-1.02 0-1.41l8-8-2-2L9.5 2.5 11 4l-1.5 1.5L17 3z"/>
    <path d="M6 17.59L8.41 20l1.5-1.5L8.41 17 6 17.59z"/>
  </symbol>

</svg>